<?xml version="1.0" encoding="UTF-8"?>
<svg xmlns="http://www.w3.org/2000/svg" viewBox="0 0 512 512" role="img" aria-label="Black Heritage Gallery">
  <rect width="512" height="512" fill="#F5F1EA"/>
  <g transform="translate(138.5, 112.5) scale(6.52)" fill="none">
    <path d="M10 4 C 10 2, 12 2, 13 4 L 14 18 C 14 20, 12 22, 12 24 L 14 38 C 14 40, 12 42, 10 42 C 8 42, 6 40, 7 38 L 8 24 C 8 22, 7 20, 7 18 L 8 4 C 8 2, 10 2, 10 4 Z" fill="#C46B2D"/>
    <path d="M22 6 C 22 4, 24 4, 25 6 L 26 20 C 26 22, 24 24, 24 26 L 26 38 C 26 40, 24 42, 22 42 C 20 42, 18 40, 19 38 L 20 26 C 20 24, 19 22, 19 20 L 20 6 C 20 4, 22 4, 22 6 Z" fill="#E0944D"/>
  </g>
</svg>
